<?xml version="1.0" encoding="UTF-8"?>
<svg id="Layer_1" data-name="Layer 1" xmlns="http://www.w3.org/2000/svg" version="1.1" viewBox="0 0 1920 537.1">
  <g>
    <path fill="#f3a45e" stroke-width="0" d="M369.4,74c7.1-7.4,14.1-14.9,21.9-21.6,1,.6,2,1.3,3,1.9-9.2,8.5-17.3,18-25,27.9-7.1,8.9-13.3,18.4-19.3,28.1-4.2,6.3-7.7,13.1-11,20-2.3-.7-4.4-1.6-6.5-2.6,2.4-3.9,5.7-7.3,7.6-11.5,2.3-4.3,3.1-9.3,5.9-13.4,7.3-10,14.9-19.8,23.4-28.8ZM117.9,83.4c18,15.6,34.7,32.8,49.6,51.4,4.3,5,7.8,10.6,12.1,15.7,2-2,3.9-4.2,5.4-6.6-15.3-20.9-32.9-40.2-52.6-57-7.3-6.1-14.8-12.1-22.9-17.4-.3,2-.5,4-.7,6,3.3,2.4,6.1,5.3,9.2,7.9ZM201.3,139.6c.4,0,1.2,0,1.5,0,3.6-1.9,6.8-4.4,10.3-6.4,11-7.9,23-14.3,34.7-21.1,6.4-3.8,12.1-8.8,18.9-12.1-1.8,4.2-4,8.3-6.5,12.1-1.9,2.7-3.2,5.8-4.4,9,4.6-4.4,8.7-9.3,14-13.1,2.3-1.7,5-3.5,5.9-6.5,2.2-6.2,3.1-12.9,3.5-19.4-11.7,4.7-21.1,13.3-31.1,20.7-16.1,11.7-31.1,24.8-46.8,36.9ZM286.4,113.4c-13.2,4.4-26,10.1-37.6,17.8-.4.6-.7,1.2-1,1.8,2.3-.9,4.5-1.9,6.7-2.9,6.4-2.9,13.2-4.8,19.9-6.9,7.5-2.4,15.4-3.1,23.2-4.1,7-.9,14.1-1.8,21.2-1.9-2.5,7.5-8.7,12.9-11.5,20.2,10.3-7.9,20.5-17.5,24.4-30.3-7.5-.4-15.1,0-22.5,1.3-7.6,1.3-15.2,2.6-22.6,4.9ZM279.8,135.2c5.4-.2,10.1-3,14.7-5.5,2.2-1.1,3.9-2.9,5.1-5-2.8-.7-5.6,0-8.2,1.3-4.4,2.3-8.6,5.2-11.6,9.2ZM398.5,161.1c.4.3,1.2.8,1.6,1.1,5.2-6.6,10.1-13.4,13.6-21,1.2-2.5,1.8-5.3,2.2-8.1-2.3,1.2-4.6,2.6-6.7,4.1-.9,9-6.6,16.2-10.8,23.9ZM312.7,143.4c7.3,2.9,15.1,4.4,22.5,7.2,11.2,4.1,22.3,8.4,32.9,13.9,9.4,5.2,18.9,10.5,27,17.6,8.4,7.4,15.9,15.8,22.7,24.7,4.3,6,8.5,12,12.7,18.1,2.1,2.8,4.3,5.7,5.1,9.2,4.7.6,9.5,1.5,14.1,2.6-11.6-20-25-39.1-41.7-55.2-15.8-15.5-34.7-27.6-55-36.3-8-3.6-16.3-6.4-24.7-9.2-1.5-.4-3.3-1.2-4.6,0-3.5,2.6-6.9,5.5-11,7.3ZM456.8,276.3c2.3,7.2,4.7,14.3,6.5,21.6,2.3,9.2,5.2,18.3,9.6,26.8,4.7,8.6,11.6,15.7,18.8,22.3,1.2-2.7,2.3-5.4,2.7-8.4-6.3-5.2-12.2-11-17.3-17.4-2.9-3.6-5.6-7.5-7.3-11.9-2.5-6.6-3.6-13.6-5-20.5-2-11.3-4-22.7-7.6-33.7-3.6-1.7-7.2-3.2-11.1-3.9,3.5,8.4,7.9,16.4,10.6,25.2ZM296,355.6c.5,1.8.8,3.8,1.9,5.3,2.2,3,5.4,5.2,7.7,8.1,1.2,1.4,1.3,3.4,1.6,5.1,4.5-5,11.1-7.2,17.4-8.8,10.4-2.5,21.4-2,31.6,1.2-3.1-4.6-5.7-9.5-8.2-14.5-2.6-1-5-2.3-7.4-3.6-8.3-4.6-18.6-5.7-27.7-3-6.4,1.8-11.9,5.9-17,10.1ZM503.7,356c6,3.6,12.3,6.8,18.9,9-5.7-4.7-10.6-10.4-16.4-15-.8,2-1.6,4-2.5,6Z"/>
    <path fill="#3c1e14" stroke-width="0" d="M429.6,6.5c5.4-3.7,11.6-6.9,18.4-6.5,7.9.1,14.7,5.7,18.6,12.3,5.6,9.2,8.3,19.9,10.9,30.3,4,16,6,32.3,7.5,48.6,2.6,31.2,1.7,62.8-3.5,93.7-3.1,16.7-7.6,33.2-14.3,48.8-.9,2.1-1.6,4.3-2.9,6.2-.4.5-.7,1-1.1,1.4-4.5-1.7-8.9-3.6-13.6-4.7-11.6-20-25-39.1-41.7-55.2-15.8-15.5-34.7-27.6-55-36.3-8-3.6-16.3-6.4-24.7-9.2-1.5-.4-3.3-1.2-4.6,0-3.5,2.6-6.9,5.5-11,7.3-6.5,3.1-13.3,6.3-20.6,6.9,4-5.4,10-8.6,15-12.9,10.3-7.9,20.5-17.5,24.4-30.3-7.5-.4-15.1,0-22.5,1.3-7.6,1.3-15.2,2.6-22.6,4.9-13.2,4.4-26,10.1-37.6,17.8,2-3.7,4.9-6.8,7.2-10.3,4.6-4.4,8.7-9.3,14-13.1,2.3-1.7,5-3.5,5.9-6.5,2.2-6.2,3.1-12.9,3.5-19.4-11.7,4.7-21.1,13.3-31.1,20.7-16.1,11.7-31.1,24.8-46.8,36.9-5.1,3.8-9.9,7.9-15.2,11.4,0-2.4-.4-4.8-1.2-7.1-15.3-20.9-32.9-40.2-52.6-57-7.3-6.1-14.8-12.1-22.9-17.4-7-5.2-14.4-9.8-21.9-14.1-12.5-7.1-25.2-13.9-38.5-19.3-2.9-1.1-6.1-2.3-9.3-1.8-3.3.8-5.5,3.8-7.1,6.6-5.5,10.4-7.6,22-10,33.3-.9,4-1.3,8-1.8,12-1.8,10-2.1,20.1-3,30.2-.9,13.6-.4,27.4.9,41,.9,13.5,2.4,27,5.5,40.2,5.6,26.1,14.9,51.8,30.3,73.8,2.1-5.6,4.2-11.2,7.3-16.3,2.9-5.4,7.4-9.7,11.6-14,5-5,10.4-9.6,15.2-14.9,7.7-7.9,14-17,20.7-25.8-8-6.2-15.3-13.6-20.2-22.5-2-3.8-3.1-8-4.1-12.1.8-2.4,1.8-5.1,4.5-5.9,5.3-1.8,11-1,16.4,0,5.8,1.7,11.5,3.7,16.5,7.1-2.8-12.7-8-24.8-15-35.7-9.8-14.8-21.7-28.1-33.4-41.5-6.6-7.9-14.3-14.8-22.6-20.8-1.8-1.3-4-1.9-6.1-2.6-2.8,5.1-4,10.7-5.5,16.3-1.8,6.8-2.7,13.9-3.7,20.8-.8-5.3,0-10.7.1-16,.5-8.7,1.2-17.4,1.5-26.1,0-3,1.8-6.2,4.8-6.9,4.3-.4,8.2,1.9,11.5,4.3,4,3,8.2,6,11.9,9.4,4.3,4.2,8.1,8.9,12,13.4,2.8,3.2,6.2,5.8,8.9,9.1,12.2,14.6,25.1,28.9,34.8,45.4,8.6,15,12.6,32,16.3,48.7-.1,2-.7,3.9-1.3,5.8-1.2-.1-2.4-.2-3.5-.3-3.4-4.9-7.1-9.8-12.4-12.7-5.3-3-10.9-5.6-17-6.4-1.7-.2-3.4-.4-5.1-.5,2,6.3,7.6,10.3,11.7,15.1,3.6,4.2,7.6,8.1,10.9,12.5,1.7,1.9-.7,3.9-1.7,5.4-7.7,8.6-15.4,17.1-23.5,25.2-8.7,8.7-17.9,16.9-25.6,26.6-6.1,7.7-8.5,17.4-11.2,26.6-3,10.3-4.7,21-6.9,31.5-.9,4.8-2.4,9.5-2.6,14.4-4.3.8-8.6,2.7-13,1.9,3.8-15.3,7.2-30.7,10.3-46.2.6-2-1-3.5-2.1-5-7.8-10-13.3-21.4-18.6-32.9-6.6-15.8-11.7-32.2-14.9-49-3.5-17.3-5-34.8-5.9-52.4-.2-11-.3-22,.2-33,.7-9.1,1.4-18.2,2.7-27.3,2.2-13.8,4.6-27.6,9.4-40.8,1.8-4.7,3.8-9.5,7.1-13.4,3.4-3.6,8.1-6.3,13.1-6.9,5.9-.8,11.7,1,17.1,3.1,6.7,2.7,13.2,5.8,19.5,9.3,20.3,10.3,39.4,22.9,57.2,37,11.7,9.2,22.8,19.3,33.2,30,6,6.6,12.1,13.1,17.6,20.1,2.9,3.5,5.6,7.3,8.9,10.4,18.4-15.5,36.8-30.9,56.2-45.1,5.6-4.1,11.1-8.2,17.2-11.6,5.2-3,10.8-6,16.9-6.5,4.8-.4,8.6,4.2,8.9,8.7.3,7.5-1.7,14.8-2.9,22.1,14.7-3,29.6-6.7,44.6-5.3,2,0,4.9,1.2,6.1-1,7.8-11.5,16.8-22,26.1-32.3,12.8-13.6,26.4-26.4,41.2-37.9,7.8-6,15.3-12.2,23.4-17.8ZM439.8,14c-7.9,4.6-14.9,10.6-22.2,16.2-9.1,7-17.9,14.4-26.4,22.2-7.7,6.8-14.8,14.2-21.9,21.6-8.5,9-16.1,18.8-23.4,28.8-2.8,4.1-3.6,9.1-5.9,13.4-1.9,4.2-5.2,7.6-7.6,11.5,2.1,1,4.2,2,6.5,2.6,4.3,1.7,8.6,3.4,12.9,5.2,8.6,3.3,16.8,7.7,24.9,12,7.5,4.1,14.5,9,21.8,13.6.4.3,1.2.8,1.6,1.1,5.2-6.6,10.1-13.4,13.6-21,1.2-2.5,1.8-5.3,2.2-8.1-2.3,1.2-4.6,2.6-6.7,4.1-5.1,2.6-10,5.7-15,8.5-1.7.9-3.6,1.8-5.6,1.7-1.5-1.1-1.6-3.1-1.6-4.7,0-3.8.6-7.6,1.2-11.3,1.6-11.8,6.7-22.8,12-33.3,6.3-11.1,13.4-21.7,20.7-32.2,2-2.6,4-5.2,5.8-7.9,3.3-4.9,7.1-9.3,11.1-13.7,2.9-3.2,5.4-7.1,9.3-9.3,1.4-.8,3.3-1.5,4.7-.2,2.9,2.5,3.3,6.6,3.7,10.2.5,6,1.7,12,1.8,18,0,4.2.8,8.4.1,12.6-1.6-6.7-3.2-13.5-5-20.2-1-3.5-1.8-7.1-3.9-10.2-1.5,1.4-2.9,2.9-4.2,4.4-5.6,7.8-11.3,15.6-16.5,23.7-8.3,12.3-16.7,24.7-22.9,38.2-2.4,5.4-4.8,10.9-5.7,16.8,5.3-3.5,11.3-5.6,17.1-8,2.9-1,6-2.2,9.1-1.5,2.5,1.1,2.9,4.2,2.9,6.6,0,11.6-5.1,22.5-11.1,32.2-2.3,3.7-5.4,6.8-7.8,10.4,7.4,5.7,13.9,12.5,19.9,19.7,7.3,8.7,14.2,17.7,20.5,27.2,2.5,3.8,5,7.6,7.3,11.6,1.8-3.8,3.1-7.8,4.2-11.8,1.3-2.3,1.9-5,2.7-7.6,3.5-12.5,6.2-25.2,7.8-38.1,1.3-11.9,2.4-23.8,2.4-35.8,1-21.7-.8-43.4-3.7-64.8-1.8-11.7-4-23.3-7.2-34.7-.9-2.6-1.4-5.5-3.1-7.8-1.9-5.1-4.6-10.4-9.4-13.5-3.5-2.3-7.7-.2-10.9,1.6ZM367.8,216.2c-1.1,2.9-1.8,6-1.5,9.1,6.5-.5,12.1-4.2,18-6.6,4.5-1.8,9.8-1.6,14.2.6,3.1,1.3,6.5,3.9,10.1,2.5,2.4-.9,1.5-3.9.5-5.6-5-8.2-15.1-14.1-24.9-11.9-6.9,1.5-12.2,6.5-16.3,11.9ZM181.1,236.6c1.5,2.4,4.9,2.6,7.2,1.4,4.9-2.4,9.8-5.4,15.4-5.8,7.1-.4,13.8,2.8,20.7,3.7,2.2.3,4.3-.4,6.3-1-.3-1.9-.5-3.9-2-5.3-4.3-4.4-9.2-8.5-15.2-10.2-10.5-3.4-22.7,0-30.4,8-2.4,2.3-3.9,6.2-2,9.3ZM464.9,288.8c1.4,6.9,2.5,13.9,5,20.5,1.6,4.4,4.3,8.3,7.3,11.9,5.1,6.5,11,12.2,17.3,17.4,1.8-4.8,2.8-9.9,2.8-15-6.1-6-13.5-11.5-16.3-20-4.1-12.3-4.7-25.5-8-38-2.1-2.4-5-3.7-7.5-5.6-2.6-1.9-5.2-3.7-8.1-5,3.6,11,5.5,22.4,7.6,33.7ZM522.7,365.1c1.1.8,2.1,1.5,3.2,2.3-5.6,4.3-11.3,8.5-17.3,12.2-3.9,2.5-8,4.7-11.7,7.6-2.1,1.1-.6,3.4-.3,5.1,2.7,1.1,5.4,2.3,7.7,4.1,1.6,2.3,3.6,5.1,2.4,8-1.9,4.6-5.4,8.3-8.7,11.9-11.8,12.2-24.2,23.9-36.9,35.2-19.1,16.9-39.7,32.1-62.1,44.4-23.1,12.7-48.4,20.8-74.4,25.2-47.3,8.1-96.5,5.3-142.6-8.3-21.7-6.3-42.4-15.6-62.1-26.5-20.3-11.5-39.7-24.7-58.8-38.2-4.4-3.3-10.4-5.2-12.8-10.5-1.7-3.8,1.1-7.5,3.3-10.4-1.3-1.8-2.8-3.7-5-4.5-4.7-1.9-9.6-3.3-14.4-4.9-5.9-2-12.1-3.2-17.8-5.9,4.7-10.9,11.8-20.6,20.1-28.9,3.7-3.9,7.9-7.3,11.2-11.6-8.6,2-15.9,7.2-23.7,11.2,2.5-6.9,7.2-12.6,11.9-18,7.5-8.6,18.8-12.1,29-16.4,4.6-1.6,8.7-4.1,13-6.3-4.6.8-9.1,2-13.8,2.8-6.3,1-12.4,2.9-18.7,4-6.3,1.3-12.9,1.6-18.6,4.9-5.2,6.7-10.2,13.7-13.3,21.7-3.4,7.8-4.5,16.4-6.3,24.6-1,4.4-4.4,8.1-4.3,12.8,0,4.8,3.6,8.9,7.8,10.8,8.2,3.8,17.1,5.6,25.6,8.7.2,3.4.2,6.9,1.6,10.1,4.3,8.8,11.7,15.7,20,20.6,10.6,6.5,22,11.7,32.5,18.4,20.5,12.7,41.7,24.5,64.1,33.5,21.7,8.6,44.4,14.7,67.5,18.4,23.2,3.5,46.7,5,70.1,3.4,25.8-1.5,51.5-5.9,76-14.1,23.2-7.7,45.1-19.2,65.1-33.2,8.6-6.2,17.4-12.2,25.4-19.2,10.1-8.6,20-17.5,29.8-26.5,8.6-8.8,18.1-16.8,25.6-26.7,3.2-4.3,7-8.8,6.9-14.4.2-4.1-2.1-7.7-4.1-11.1,7.4-5,14.9-10,21.4-16.1,3.4-2.9,4.1-7.9,2.6-12-1.1-2.6-3.4-4.4-5.6-6.2-3.7-3-6.7-6.6-10.3-9.6-4.1-3.4-7.4-7.5-11.6-10.8-3.1,3.9-3.3,9-5.3,13.5,5.8,4.6,10.7,10.3,16.4,15ZM388.5,280c10.1-4.7,22.1-6.1,32.4-1.3,7.5,3.2,14,8.5,18.9,15.1,5.9,8.2,9.2,18.2,9.2,28.2.1,11.6-4.1,23.4-12,32-9.2,10.1-23.1,15.5-36.7,14.5-9.4-.4-18.1-5.1-25.1-11.2-7.5-7-11.7-16.9-13-26.9-.6-9.5.4-19.3,4.6-27.9,4.5-9.5,11.9-18,21.6-22.4ZM389.8,290.1c4,0,8-.4,11.9.8,5.4,1.6,10.1,5.1,13.9,9.2,7,8.8,10.3,20.6,8.4,31.8-1.4,10.3-7.1,20.4-16.3,25.7-3.2,1.9-6.8,2.6-10.4,3.4,12.9,1.4,26.5-3.9,34.4-14.3,5.9-7.1,8.2-16.7,7.3-25.7-.9-9-5.3-17.4-11.8-23.6-3-3.1-6.8-5.4-10.6-7.5-4.4-2.3-9.2-4.6-14.4-4.2-4.5.2-8.5,2.4-12.4,4.6ZM402.4,298.1c-2.9.7-5.5,3-6.5,5.8-2.1,5.4,2.3,12.6,8.3,12.3,5,.2,9.2-4.6,9.1-9.5,0-5.4-5.7-10-11-8.7ZM409.5,329.3c-1.2,5.6-3.8,11.3-8.8,14.5-4.1,2.8-10,2.7-14.1-.1-2.4-1.7-3.9-4.3-5.5-6.7-1.5,1-3.2,2.1-3.9,3.9-1.3,2.5-.6,5.6,1.2,7.6,2.6,3.1,5.8,6.2,9.8,7.4,7.2,1.9,15.3-.1,20.8-5.2,2.9-2.7,6-5.8,6.7-9.9.7-4.7-2.2-9.2-6.1-11.5ZM185.9,298.7c10.5-5.9,23.9-6.5,34.9-1.4,4.2,1.9,7.8,4.9,11.6,7.5,3.7,4.4,7.6,8.8,10.2,14,2.2,4.2,3.5,8.7,4.8,13.3,1.3,9.2.5,18.9-3.3,27.5-4.3,7.9-11.2,14.6-20,17.1-9.9,3.3-21.3,0-28.7-7.2-7.4-7-11.5-16.8-12.4-26.9-.5-8.8,1.3-18,6.4-25.4,2-3,4.5-5.6,7.6-7.3-3.2,3.7-4,9.5-.9,13.5,3,4.7,10.3,5.6,14.3,1.8,4.3-3.6,4.7-10.8.8-14.8-2-2.4-5.3-3.1-8.3-3.2,2.1-.8,4.2-1.6,6.4-2.4-8.9.4-17.7,3.9-23.9,10.4-7.4,7.3-11.3,17.7-11.1,28,.2,9.7,4.1,19.3,10.5,26.6,3.9,4.4,8.9,7.7,14.2,10.2-6.3.2-12.3-2.8-17.5-6.2-11.8-7.9-17.9-22.2-18.3-36,0-9.4,2.9-18.8,8.3-26.5,4.2-4.9,8.8-9.4,14.5-12.5ZM232.2,338.3c-.2,4.4-.4,8.9-2.7,12.8-2.4,4.2-6.2,8.5-11.3,8.8-3.7.3-7.8,0-10.6-2.6-4.9-4.4-8.8-10.5-9-17.3-3.1,3.3-7.3,6.6-7.2,11.5-.4,4.6,1.8,9,5,12.2,3.7,3.8,7.8,7.6,13.1,8.9,3.7.7,7.5.7,11.2,0,7-1.5,12.9-6.2,16.9-12,2.7-4,2.9-9.2,2.3-13.8-.6-4-4-7-7.7-8.5ZM324.7,365.4c10.4-2.5,21.4-2,31.6,1.2,3.4,2.7,6.2,6.1,7.8,10.1-.3,4.4-.6,8.9-2.9,12.8-4.1,7-10.7,12.3-18.1,15.8-.5,3.3-1,6.7-1.4,10,5.3,4.1,11.8,7.3,18.6,7,6.5-.2,12.1-4.9,15.1-10.4,1.7-3,2-6.6,3.4-9.7,1.2-2.7,5.4-3.4,7.3-1,1.6,1.8,1.4,4.4,1,6.6-2.4,11.9-11.9,22.4-23.9,24.9-9.3,1.6-18.4-2.3-26.2-7.1-3.1,3.1-6.4,6.2-10.4,8.3-8.3,4.4-18.2,5.9-27.4,4-9.6-2.1-17.4-9-23.4-16.4-2.6-3.5-5.7-7.6-4.9-12.2,1.1-5,8.6-5.9,11.5-2,2.1,3.1,2.5,6.9,4.5,10,3.5,5.4,9.1,9.7,15.7,10.4,9.3,1.3,18.5-2.9,25.2-9,3.5-3.3,4.3-8.2,4.9-12.7-8.1-3.3-16.9-5.7-23.5-11.7-2.7-2.3-4.1-5.7-5.6-8.8.2-4,1-8.1,3.6-11.2,4.5-5,11.1-7.2,17.4-8.8ZM325.3,372.1c-3.3.5-6.3,2.1-8.7,4.3-1.9,1.8-4.4,3.8-4.2,6.7.1,3.8,3.3,6.5,6.5,7.9,4.9,2.3,9.7,4.7,14.8,6.5,2.9,1.1,6.3,1.2,9-.5,4.5-2.7,8.2-6.5,11.1-10.9,1.7-2.7,3.1-5.8,2.5-9.1-.3-1.8-1.8-2.9-2.9-4-8.5-4.9-19.1-4.3-28-.9ZM336.5,446.6c-4.9,3.1-11,3.8-16,6.7,2.9,2.8,7.2,2.9,11,2.6,7-.9,13.6-4.6,17.9-10.1,2.3-2.7,3.8-6.1,3.1-9.7-1.8,0-3.7.3-5,1.7-3.5,3.2-6.9,6.6-11,8.9Z"/>
    <path fill="#f6ede3" stroke-width="0" d="M427.7,73.3c5.3-8.1,10.9-15.9,16.5-23.7,1.2,3.6,2.1,7.4,2.1,11.2,0,10.9-3.3,21.5-6.8,31.7,1.3-.9,2.6-1.8,3.9-2.8,0,4.2,0,8.4.2,12.5-.6,4.8-.7,9.6-1,14.4-.9,7.9-2.3,15.8-4.2,23.5-1.7,7.9-4.4,15.6-7.3,23.2,3-1.6,5.9-3.3,8.8-5-.6,7.4-3.2,14.5-6.2,21.3-1.2,2.8-2.8,5.4-4.5,8-6-7.2-12.5-14-19.9-19.7,2.4-3.6,5.5-6.7,7.8-10.4,6-9.7,11-20.6,11.1-32.2,0-2.4-.4-5.5-2.9-6.6-3.1-.7-6.2.4-9.1,1.5-5.8,2.5-11.8,4.6-17.1,8,.9-5.9,3.2-11.4,5.7-16.8,6.2-13.6,14.6-25.9,22.9-38.2ZM60.1,152.3c6,19.1,17.1,36.9,32.3,50.1-4.4-6.7-7.7-14.1-9.8-21.8-.7-3.7-1.5-8,.6-11.4.6-1.1,1.4-2.2,2-3.3.8-2.4,1.8-5.1,4.5-5.9,5.3-1.8,11-1,16.4,0-1.4-6.6-5.8-11.9-10.3-16.7-11.9-12.9-23.4-26.2-34.3-39.9-2.4-3-5.2-5.8-8.2-8.3-1.1,19.3,1.2,38.7,6.8,57.2ZM375.8,368.3c6.8,7,14.8,12.9,23.8,16.7,10.3,4.4,21.6,6.7,32.8,5.6,9.6-.9,19.4-3.4,27.5-8.8-5.4.2-10.9.2-16.3,1.1-9.2,1.5-18.5,1.5-27.8.9-15-1.7-29.7-8-40.5-18.7-2.5-2.5-5.1-5-7.7-7.5,2.1,3.9,5,7.3,8.1,10.6ZM204.1,411.1c9.1.2,18.2-2.2,26.6-5.8,8.3-3.5,16-8.4,22.4-14.7,3.6-3.6,7.3-7.2,9.7-11.7-7.3,4.5-13.6,10.4-20.8,15-11.4,8.1-24.2,14.1-37.9,17.2Z"/>
    <path fill="#20201e" stroke-width="0" d="M371,255.1c17.5-15.3,41.3-23.3,64.5-20.9,4.7.6,9.5,1.5,14.1,2.6,4.7,1.1,9.1,3.1,13.6,4.7.4-.5.7-1,1.1-1.4.2.9.4,1.8.6,2.7,4.3,2.5,8.8,4.7,12.7,7.9,5.3,4.3,10.7,8.6,14.8,14,8.7,10.2,14.3,22.7,17.4,35.6,3,.7,6.9.6,8.5,3.7,1.6,3.1,1.7,6.9.5,10.1-1.1,2.9-4.1,4.4-6.7,5.9-.4,4.1-.7,8.2-1.3,12.2-.3,1.4.2,2.9.6,4.2-3.1,3.9-3.3,9-5.3,13.5-.8,2-1.6,4-2.5,6-4.1,8.1-9.2,15.8-15.7,22.2-2.8,2.8-5.7,5.5-8.7,8.1-18.6,15.6-44.5,22.4-68.3,17.4-18.1-3.5-34.7-13.4-46.9-27.1-1.6-4-4.4-7.4-7.8-10.1-3.1-4.6-5.7-9.5-8.2-14.5-2.1-4.5-3.3-9.4-4.6-14.1-1-4-4.7-6.3-7.8-8.7-5-3.7-11.2-5.8-17.4-5.5-10.1.1-19.6,5.6-25.9,13.4-1.5,1.9-1.4,4.4-1.6,6.7-.5,9.8-3,19.4-6.8,28.5-8.9,20.3-25.6,36.9-45.7,46-24.1,10.9-53,10.2-76.5-1.8-3.3-1.6-6.4-3.5-9.6-5.5-5.3-4-10.8-8-15.2-13-7.9-8.1-14.2-17.8-18.4-28.3-4.6-11-6.4-22.9-6.4-34.7-7.1.9-14.2,2.3-21.2,3.8s-10.1,1.9-15.1,2.8c-4.6.8-9.1,2-13.8,2.8-6.3,1-12.4,2.9-18.7,4-6.3,1.3-12.9,1.6-18.6,4.9-4.1,1.5-7.7,4.6-12.3,4.3-3.4-.2-7-1.2-9.4-3.8-4.2-4.6-3.1-13.3,3-15.8,5.3-2,11-2.7,16.5-4.2,4.8-1.4,10.1-1.2,14.5-3.9,4.5.8,8.7-1.1,13-1.9,10.7-2.4,21.4-4.5,32.1-6.8,10.9-2.1,21.6-5.2,32.8-5.5,4.7-18.2,15.3-34.7,29.8-46.6,20.2-16.9,48.2-23.9,74-18.9,22.7,4.2,43.4,17.9,56.5,36.9,5.9,8.3,10,17.8,12.9,27.6,2-1.1,4-2.3,6-3.3,9.9-5.1,21.3-7.2,32.3-5.4,5.6,1,10.6,3.7,15.7,6,1.7-21.9,12.4-42.7,28.8-57.2ZM388.3,260c-10.2,6.6-18.4,16.2-24,26.9-4.9,9.3-7.4,19.8-8.1,30.3-.4,8.5,1.2,17,3.8,25.1,1.9,5.5,4.2,11,7.8,15.5,2.1,3.9,5,7.3,8.1,10.6,6.8,7,14.8,12.9,23.8,16.7,10.3,4.4,21.6,6.7,32.8,5.6,9.6-.9,19.4-3.4,27.5-8.8,14.3-7.2,25.7-20,31.7-34.8,1.2-2.7,2.3-5.4,2.7-8.4,1.8-4.8,2.8-9.9,2.8-15,.6-2.9.4-5.9,0-8.8-.9-15.5-7.2-30.7-17.4-42.4-2.1-2.5-4.3-4.9-7-6.7-2.1-2.4-5-3.7-7.5-5.6-2.6-1.9-5.2-3.7-8.1-5-3.6-1.7-7.2-3.2-11.1-3.9-7.6-2.9-15.9-3.5-24-3.1-12.2.7-23.7,5.4-33.9,11.9ZM182.3,266.3c-19.5,5.1-36.2,18.9-45.9,36.5-6.7,12.8-9.9,27.6-8.4,42,2.1,23.5,16.8,45.3,37.3,56.8,8.5,4.6,17.7,8,27.4,9.2,3.8.5,7.7,1.1,11.5.4,9.1.2,18.2-2.2,26.6-5.8,8.3-3.5,16-8.4,22.4-14.7,3.6-3.6,7.3-7.2,9.7-11.7,1.4-1.1,2.2-2.8,3.1-4.3,2.4-4.6,4.9-9.2,6.5-14.1,4.6-14.7,4.7-30.8,0-45.5-3.2-9.3-7.7-18.2-14.3-25.5-8.5-9.8-19.5-17.6-31.9-21.7-14.1-4.9-29.6-5.5-44-1.5Z"/>
    <path fill="#d9bcb2" stroke-width="0" d="M45.7,66.6c2.1.6,4.3,1.2,6.1,2.6,8.3,6,16,12.9,22.6,20.8,11.6,13.4,23.6,26.6,33.4,41.5,7,10.9,12.2,23,15,35.7-5-3.4-10.8-5.5-16.5-7.1-1.4-6.6-5.8-11.9-10.3-16.7-11.9-12.9-23.4-26.2-34.3-39.9-2.4-3-5.2-5.8-8.2-8.3-1.1,19.3,1.2,38.7,6.8,57.2,6,19.1,17.1,36.9,32.3,50.1-4.4-6.7-7.7-14.1-9.8-21.8-.7-3.7-1.5-8,.6-11.4.6-1.1,1.4-2.2,2-3.3,1,4.1,2.1,8.3,4.1,12.1,4.9,9,12.2,16.3,20.2,22.5-6.7,8.8-13.1,17.8-20.7,25.8-4.8,5.2-10.2,9.9-15.2,14.9-4.6-3.2-7.7-7.9-11-12.4-8.2-11.4-14-24.4-18.5-37.8-8.3-26.2-10.6-54.1-8.2-81.4.3-1.9.5-3.9.6-5.8,1-7,1.9-14,3.7-20.8,1.4-5.5,2.7-11.2,5.5-16.3ZM463.6,131.3c.2-6.8-.4-13.5-1.3-20.3-.7-5.3-1.2-10.7-1.6-16-.2-.7-.4-1.5-.5-2.2-.7-5.8-2-11.5-2.9-17.3-1.6-6.7-3.2-13.5-5-20.2-1-3.5-1.8-7.1-3.9-10.2-1.5,1.4-2.9,2.9-4.2,4.4,1.2,3.6,2.1,7.4,2.1,11.2,0,10.9-3.3,21.5-6.8,31.7,1.3-.9,2.6-1.8,3.9-2.8,0,4.2,0,8.4.2,12.5-.6,4.8-.7,9.6-1,14.4-.9,7.9-2.3,15.8-4.2,23.5-1.7,7.9-4.4,15.6-7.3,23.2,3-1.6,5.9-3.3,8.8-5-.6,7.4-3.2,14.5-6.2,21.3-1.2,2.8-2.8,5.4-4.5,8,7.3,8.7,14.2,17.7,20.5,27.2,3.8-9.6,7-19.3,9.1-29.4,1.9-9.5,3.4-19,4.3-28.6.8-8.5.5-17,.5-25.5ZM401.7,290.9c5.4,1.6,10.1,5.1,13.9,9.2,3.7-1.7,7.7-2.1,11.6-2.9-3-3.1-6.8-5.4-10.6-7.5-4.4-2.3-9.2-4.6-14.4-4.2-4.5.2-8.5,2.4-12.4,4.6,4,0,8-.4,11.9.8ZM174.1,343.2c2.1-2.9,5.1-5.2,8.3-6.9.2,2.1.3,4.2.5,6.2-.5-8.8,1.3-18,6.4-25.4,2-3,4.5-5.6,7.6-7.3,1.9-1.1,3.9-1.9,5.9-2.7,2.1-.8,4.2-1.6,6.4-2.4-8.9.4-17.7,3.9-23.9,10.4-7.4,7.3-11.3,17.7-11.1,28ZM493.4,404.2c-7.3,5.2-14.1,11.1-20.8,17-10.4,9.6-20.8,19.1-31.5,28.3-22,18.2-47.1,32.7-74.2,41.9-22.4,7.7-46.1,11.2-69.8,11.6-22.6,0-45.4-2.8-67.1-9.4-24.1-7.1-46.9-18.1-68-31.6-8.3-5.4-16.6-10.8-24.5-16.8-9.8-6.9-19.2-14.4-29.2-21-5.9-3.7-12-7.4-18.8-9.4-5.1-1.6-10.6-1.5-15.9-1.9-.5,0-1.1,0-1.6,0-7.7,3.3-15.4,7.5-20.5,14.3-2.2,2.9-5,6.6-3.3,10.4,2.3,5.4,8.4,7.2,12.8,10.5,19.1,13.5,38.4,26.6,58.8,38.2,19.7,11,40.4,20.2,62.1,26.5,46.1,13.6,95.3,16.5,142.6,8.3,25.9-4.4,51.3-12.6,74.4-25.2,22.4-12.2,43.1-27.5,62.1-44.4,12.8-11.3,25.1-23,36.9-35.2,3.3-3.6,6.8-7.3,8.7-11.9,1.2-2.9-.8-5.7-2.4-8-3.2,3.2-7.4,5.1-10.9,7.8Z"/>
    <path fill="#d65921" stroke-width="0" d="M91.1,339.1c0,.6,0,1.2,0,1.8-13.4,10.6-23.5,24.7-31.6,39.6-2.5,4.9-5.4,9.6-6.4,15.1,4.8-.7,9.3-2.5,14.2-2.9-3.8,3.9-8.7,6.6-12.4,10.7-2.3,2.2-4,5-5.4,8,5.4.5,10.8,0,16.1,0,2.3,0,4.4.8,6.4,1.7-7.7,3.3-15.4,7.5-20.5,14.3-1.3-1.8-2.8-3.7-5-4.5-4.7-1.9-9.6-3.3-14.4-4.9-5.9-2-12.1-3.2-17.8-5.9,4.7-10.9,11.8-20.6,20.1-28.9,3.7-3.9,7.9-7.3,11.2-11.6-8.6,2-15.9,7.2-23.7,11.2,2.5-6.9,7.2-12.6,11.9-18,7.5-8.6,18.8-12.1,29-16.4,4.6-1.6,8.7-4.1,13-6.3,5-.9,10.1-1.8,15.1-2.8ZM54.6,271.4c2.1-5.6,4.2-11.2,7.3-16.3,2.9-5.4,7.4-9.7,11.6-14-4.6-3.2-7.7-7.9-11-12.4-8.2-11.4-14-24.4-18.5-37.8-8.3-26.2-10.6-54.1-8.2-81.4-1.1,2.5-2.4,5-3.4,7.6-4,11-8.7,21.7-11.7,33.1-.6,2.4-1.4,4.8-2.1,7.2.9,13.5,2.4,27,5.5,40.2,5.6,26.1,14.9,51.8,30.3,73.8ZM239.6,285.3c-11.3-8.1-25.5-12-39.3-10.6-7.6,1.1-15,3.9-21.5,7.9-10.7,6.9-18.8,17.8-21.9,30.1-1.5,3.6-1.5,7.5-1.3,11.3.2,5.6.8,11.6,5,15.8.9-.7,1.7-1.4,2.6-2.1,0-9.4,2.9-18.8,8.3-26.5,4.2-4.9,8.8-9.4,14.5-12.5,10.5-5.9,23.9-6.5,34.9-1.4,4.2,1.9,7.8,4.9,11.6,7.5,3.7,4.4,7.6,8.8,10.2,14,2.2,4.2,3.5,8.7,4.8,13.3,3.7,3,8.5,4.5,11.9,7.8,2.5,2.1,4.1,5.5,7.5,6.4,1-3.7,1.3-7.7.3-11.4-1.2-19.4-11.4-38.4-27.4-49.5ZM138.4,184.9c-.1,2-.7,3.9-1.3,5.8-1.2-.1-2.4-.2-3.5-.3-4.2-.2-8.6-.3-12.4-2.3-7.6-3.6-13.8-9.9-18.3-16.9.3,0,1,0,1.4.1-1.7-.2-3.4-.4-5.1-.5,2,6.3,7.6,10.3,11.7,15.1,3.6,4.2,7.6,8.1,10.9,12.5,1.7,1.9-.7,3.9-1.7,5.4-7.7,8.6-15.4,17.1-23.5,25.2-8.7,8.7-17.9,16.9-25.6,26.6-6.1,7.7-8.5,17.4-11.2,26.6-3,10.3-4.7,21-6.9,31.5-.9,4.8-2.4,9.5-2.6,14.4,10.7-2.4,21.4-4.5,32.1-6.8,2.2-5.6,3.7-11.5,5.4-17.3,9.3-31.7,22.1-62.6,40-90.5,5.4-8.6,11-17.4,18.6-24.3-2.1-2.3-4.7-4.1-7.9-4.5ZM402.7,60c-2.3-1.5-4.6-3.1-6.9-4.6-.5-.4-1.1-.7-1.6-1.1-9.2,8.5-17.3,18-25,27.9-7.1,8.9-13.3,18.4-19.3,28.1-4.2,6.3-7.7,13.1-11,20,4.3,1.7,8.6,3.4,12.9,5.2.6-2.1,1.2-4.2,2-6.3,8-20.5,20.9-38.8,35.3-55.3,4.3-4.8,8.2-10.1,13.6-13.9ZM469.3,117.4c-2.6-7.5-5-15.2-8.6-22.3.4,5.3.8,10.7,1.6,16,.9,6.7,1.4,13.5,1.3,20.3,0,8.5.3,17-.5,25.5-.9,9.6-2.4,19.2-4.3,28.6-2.1,10.1-5.3,19.8-9.1,29.4,2.5,3.8,5,7.6,7.3,11.6,1.8-3.8,3.1-7.8,4.2-11.8,1.3-2.3,1.9-5,2.7-7.6,3.5-12.5,6.2-25.2,7.8-38.1,1.3-11.9,2.4-23.8,2.4-35.8-1-5.4-3.1-10.6-4.7-15.8ZM450.5,269.5c-4.3-4.1-8.8-8.5-14.6-10.2-4.7-1.2-9.5-2.6-14.4-2.7-16.3-.2-32.3,6.6-44.2,17.7-4,3.7-7,8.3-9.7,13-2.8,5-4.4,10.5-6.1,16-1.3,4.3-1.7,8.8-1.8,13.2-.2,2.4,1.6,4.4,1.8,6.8.2,2.3.2,4.7.7,7-.6-9.5.4-19.3,4.6-27.9,4.5-9.5,11.9-18,21.6-22.4,10.1-4.7,22.1-6.1,32.4-1.3,7.5,3.2,14,8.5,18.9,15.1,1.6,0,3.7.8,4.9-.6,2.9-2.7,5.8-5.3,8.1-8.5,1.1-1.8,3.5-3.3,2.9-5.7-.4-3.7-2.5-6.9-5.2-9.3Z"/>
    <g>
      <path fill="#ed7e35" stroke-width="0" d="M398.5,161.1c4.1-7.7,9.9-14.9,10.8-23.9-5.1,2.6-10,5.7-15,8.5-1.7.9-3.6,1.8-5.6,1.7-1.5-1.1-1.6-3.1-1.6-4.7,0-3.8.6-7.6,1.2-11.3,1.6-11.8,6.7-22.8,12-33.3,6.3-11.1,13.4-21.7,20.7-32.2-3,0-6,0-8.8-.9-3.4-1.1-6.4-3-9.3-4.9-5.4,3.8-9.2,9.1-13.6,13.9-14.4,16.5-27.3,34.8-35.3,55.3-.8,2.1-1.4,4.2-2,6.3,8.6,3.3,16.8,7.7,24.9,12,7.5,4.1,14.5,9,21.8,13.6Z"/>
      <path fill="#ed7e35" stroke-width="0" d="M82.3,321.5c10.9-2.1,21.6-5.2,32.8-5.5,4.7-18.2,15.3-34.7,29.8-46.6,20.2-16.9,48.2-23.9,74-18.9,22.7,4.2,43.4,17.9,56.5,36.9,5.9,8.3,10,17.8,12.9,27.6,2-1.1,4-2.3,6-3.3,9.9-5.1,21.3-7.2,32.3-5.4,5.6,1,10.6,3.7,15.7,6,1.7-21.9,12.4-42.7,28.8-57.2,17.5-15.3,41.3-23.3,64.5-20.9-.8-3.5-3-6.4-5.1-9.2-4.1-6.1-8.3-12.2-12.7-18.1-6.8-8.9-14.3-17.3-22.7-24.7-8.2-7.1-17.6-12.4-27-17.6-10.6-5.5-21.7-9.8-32.9-13.9-7.4-2.7-15.1-4.3-22.5-7.2-6.5,3.1-13.3,6.3-20.6,6.9,4-5.4,10-8.6,15-12.9,2.8-7.3,9-12.7,11.5-20.2-7.1,0-14.1,1-21.2,1.9-7.8,1-15.7,1.7-23.2,4.1-6.7,2.1-13.5,4-19.9,6.9-2.2,1-4.4,2-6.7,2.9.3-.6.7-1.2,1-1.8,2-3.7,4.9-6.8,7.2-10.3,1.1-3.1,2.5-6.2,4.4-9,2.5-3.8,4.7-7.9,6.5-12.1-6.7,3.3-12.4,8.3-18.9,12.1-11.7,6.8-23.6,13.3-34.7,21.1-3.5,2-6.8,4.5-10.3,6.4-.4,0-1.2,0-1.5,0-5.1,3.8-9.9,7.9-15.2,11.4,0-2.4-.4-4.8-1.2-7.1-1.5,2.5-3.3,4.6-5.4,6.6-4.2-5.1-7.7-10.7-12.1-15.7-14.9-18.6-31.6-35.8-49.6-51.4-3.1-2.6-5.9-5.5-9.2-7.9l-.4-.3c-1.2,6.8-3.5,13.3-6.4,19.5-4.8-1.5-9.5-4-14.7-4,12.2,14.6,25.1,28.9,34.8,45.4,8.6,15,12.6,32,16.3,48.7,3.2.4,5.8,2.2,7.9,4.5-7.6,6.9-13.2,15.7-18.6,24.3-17.9,27.9-30.7,58.8-40,90.5-1.7,5.8-3.2,11.6-5.4,17.3ZM367.8,216.2c4.1-5.5,9.4-10.5,16.3-11.9,9.8-2.1,19.9,3.7,24.9,11.9,1,1.7,1.8,4.7-.5,5.6-3.6,1.3-6.9-1.2-10.1-2.5-4.4-2.2-9.6-2.4-14.2-.6-5.9,2.4-11.4,6.1-18,6.6-.3-3.1.4-6.2,1.5-9.1ZM291.4,126c2.5-1.3,5.4-2.1,8.2-1.3-1.2,2.1-2.9,3.9-5.1,5-4.6,2.5-9.3,5.3-14.7,5.5,3-4,7.2-6.9,11.6-9.2ZM213.6,219.3c6,1.7,10.9,5.8,15.2,10.2,1.5,1.3,1.7,3.4,2,5.3-2,.6-4.2,1.4-6.3,1-7-.9-13.6-4.1-20.7-3.7-5.6.4-10.4,3.5-15.4,5.8-2.3,1.2-5.7,1-7.2-1.4-1.9-3.1-.3-7,2-9.3,7.6-7.9,19.8-11.4,30.4-8Z"/>
      <path fill="#ed7e35" stroke-width="0" d="M472.9,324.7c-4.3-8.5-7.2-17.6-9.6-26.8-1.8-7.3-4.3-14.4-6.5-21.6-2.7-8.7-7.1-16.8-10.6-25.2-7.6-2.9-15.9-3.5-24-3.1-12.2.7-23.7,5.4-33.9,11.9-10.2,6.6-18.4,16.2-24,26.9-4.9,9.3-7.4,19.8-8.1,30.3-.4,8.5,1.2,17,3.8,25.1,1.9,5.5,4.2,11,7.8,15.5,2.6,2.4,5.2,4.9,7.7,7.5,10.8,10.7,25.5,17,40.5,18.7,9.3.6,18.6.6,27.8-.9,5.4-.9,10.8-.9,16.3-1.1,14.3-7.2,25.7-20,31.7-34.8-7.2-6.6-14.1-13.7-18.8-22.3ZM452.8,284.6c-2.3,3.2-5.2,5.8-8.1,8.5-1.3,1.4-3.3.7-4.9.6,5.9,8.2,9.2,18.2,9.2,28.2.1,11.6-4.1,23.4-12,32-9.2,10.1-23.1,15.5-36.7,14.5-9.4-.4-18.1-5.1-25.1-11.2-7.5-7-11.7-16.9-13-26.9-.5-2.3-.5-4.7-.7-7-.2-2.4-2-4.3-1.8-6.8,0-4.5.5-8.9,1.8-13.2,1.6-5.4,3.2-11,6.1-16,2.7-4.7,5.8-9.3,9.7-13,11.9-11.1,27.9-17.9,44.2-17.7,4.9,0,9.7,1.4,14.4,2.7,5.9,1.7,10.4,6.1,14.6,10.2,2.7,2.5,4.8,5.6,5.2,9.3.6,2.4-1.8,3.9-2.9,5.7Z"/>
      <path fill="#ed7e35" stroke-width="0" d="M258.1,289.5c-8.5-9.8-19.5-17.6-31.9-21.7-14.1-4.9-29.6-5.5-44-1.5-19.5,5.1-36.2,18.9-45.9,36.5-6.7,12.8-9.9,27.6-8.4,42,2.1,23.5,16.8,45.3,37.3,56.8,8.5,4.6,17.7,8,27.4,9.2,3.8.5,7.7,1.1,11.5.4,13.6-3.1,26.5-9,37.9-17.2,7.2-4.6,13.5-10.6,20.8-15,1.4-1.1,2.2-2.8,3.1-4.3,2.4-4.6,4.9-9.2,6.5-14.1,4.6-14.7,4.7-30.8,0-45.5-3.2-9.3-7.7-18.2-14.3-25.5ZM266.8,346.3c-3.4-.9-5-4.3-7.5-6.4-3.4-3.4-8.2-4.8-11.9-7.8,1.3,9.2.5,18.9-3.3,27.5-.3,2-.9,3.9-2,5.6-4.1,6.4-10.3,11.7-17.6,14-8.1,2.5-17.3,4.2-25.5.8-6.3.2-12.3-2.8-17.5-6.2-11.8-7.9-17.9-22.2-18.3-36-.9.7-1.8,1.4-2.6,2.1-4.1-4.2-4.8-10.2-5-15.8-.2-3.8-.2-7.7,1.3-11.3,3.2-12.3,11.2-23.3,21.9-30.1,6.5-4.1,13.9-6.9,21.5-7.9,13.8-1.4,28.1,2.5,39.3,10.6,16,11.2,26.2,30.1,27.4,49.5,1.1,3.8.7,7.7-.3,11.4Z"/>
      <path fill="#ed7e35" stroke-width="0" d="M137,398.2c-7.9-8.1-14.2-17.8-18.4-28.3-4.6-11-6.4-22.9-6.4-34.7-7.1.9-14.2,2.3-21.2,3.8,0,.6,0,1.2,0,1.8-13.4,10.6-23.5,24.7-31.6,39.6-2.5,4.9-5.4,9.6-6.4,15.1,4.8-.7,9.3-2.5,14.2-2.9-3.8,3.9-8.7,6.6-12.4,10.7-2.3,2.2-4,5-5.4,8,5.4.5,10.8,0,16.1,0,2.3,0,4.4.8,6.4,1.7.5,0,1.1,0,1.6,0,9.9-3.6,20.6-4.6,31.1-5.2,15.9-.8,31.6,3,47.5,3.6-5.3-4-10.8-8-15.2-13Z"/>
      <path fill="#ed7e35" stroke-width="0" d="M133.6,190.4c-3.4-4.9-7.1-9.8-12.4-12.7-5.3-3-10.9-5.6-17-6.4-.3,0-1,0-1.4-.1,4.5,7,10.7,13.3,18.3,16.9,3.9,1.9,8.2,2.1,12.4,2.3Z"/>
      <path fill="#ed7e35" stroke-width="0" d="M335.8,329.3c-5-3.7-11.2-5.8-17.4-5.5-10.1.1-19.6,5.6-25.9,13.4-1.5,1.9-1.4,4.4-1.6,6.7-.5,9.8-3,19.4-6.8,28.5,3.3,1.3,6.4,2.9,9.5,4.6,3.4,2.7,6.8,5.6,10.2,8.4.2-4,1-8.1,3.6-11.2-.3-1.8-.4-3.7-1.6-5.1-2.3-2.9-5.5-5.1-7.7-8.1-1.2-1.6-1.5-3.5-1.9-5.3,5.1-4.2,10.6-8.3,17-10.1,9.1-2.7,19.4-1.6,27.7,3,2.4,1.3,4.8,2.6,7.4,3.6-2.1-4.5-3.3-9.4-4.6-14.1-1-4-4.7-6.3-7.8-8.7Z"/>
      <path fill="#ed7e35" stroke-width="0" d="M522.7,365.1c-6.7-2.2-12.9-5.5-18.9-9-4.1,8.1-9.2,15.8-15.7,22.2-2.8,2.8-5.7,5.5-8.7,8.1,6,1.3,11.7,3.5,17.3,5.8-.3-1.7-1.8-4,.3-5.1,3.7-2.8,7.8-5,11.7-7.6,6-3.7,11.7-7.9,17.3-12.2-1.1-.8-2.2-1.6-3.2-2.3Z"/>
    </g>
    <path fill="#fdfefd" stroke-width="0" d="M415.6,300.1c3.7-1.7,7.7-2.1,11.6-2.9,6.5,6.2,10.9,14.7,11.8,23.6,1,9.1-1.4,18.7-7.3,25.7-7.9,10.5-21.5,15.7-34.4,14.3,3.5-.8,7.2-1.5,10.4-3.4,9.2-5.3,14.9-15.3,16.3-25.7,1.8-11.2-1.4-22.9-8.4-31.8ZM395.9,304c-2.1,5.4,2.3,12.6,8.3,12.3,5,.2,9.2-4.6,9.1-9.5,0-5.4-5.7-10-11-8.7-2.9.7-5.5,3-6.5,5.8ZM196,323.4c3,4.7,10.3,5.6,14.3,1.8,4.3-3.6,4.7-10.8.8-14.8-2-2.4-5.3-3.1-8.3-3.2-2,.8-4,1.6-5.9,2.7-3.2,3.7-4,9.5-.9,13.5ZM184.7,369.8c3.9,4.4,8.9,7.7,14.2,10.2,8.1,3.4,17.3,1.7,25.5-.8,7.3-2.3,13.5-7.6,17.6-14,1.1-1.7,1.7-3.6,2-5.6-4.3,7.9-11.2,14.6-20,17.1-9.9,3.3-21.3,0-28.7-7.2-7.4-7-11.5-16.8-12.4-26.9-.2-2.1-.4-4.2-.5-6.2-3.2,1.7-6.1,3.9-8.3,6.9.2,9.7,4.1,19.3,10.5,26.6ZM161.8,416.7c-3.3-1.6-6.4-3.5-9.6-5.5-15.9-.6-31.5-4.4-47.5-3.6-10.5.6-21.1,1.6-31.1,5.2,5.3.4,10.7.3,15.9,1.9,6.8,1.9,12.9,5.7,18.8,9.4,10,6.6,19.5,14,29.2,21,7.9,5.9,16.2,11.3,24.5,16.8,21.1,13.5,43.9,24.4,68,31.6,21.7,6.6,44.4,9.4,67.1,9.4,23.7-.4,47.4-3.9,69.8-11.6,27.1-9.1,52.2-23.7,74.2-41.9,10.7-9.2,21.1-18.7,31.5-28.3,6.7-5.9,13.5-11.7,20.8-17,3.6-2.7,7.8-4.6,10.9-7.8-2.3-1.8-5-3-7.7-4.1-5.6-2.3-11.4-4.5-17.3-5.8-18.6,15.6-44.5,22.4-68.3,17.4-18.1-3.5-34.7-13.4-46.9-27.1-.3,4.4-.6,8.9-2.9,12.8-4.1,7-10.7,12.3-18.1,15.8-.5,3.3-1,6.7-1.4,10,5.3,4.1,11.8,7.3,18.6,7,6.5-.2,12.1-4.9,15.1-10.4,1.7-3,2-6.6,3.4-9.7,1.2-2.7,5.4-3.4,7.3-1,1.6,1.8,1.4,4.4,1,6.6-2.4,11.9-11.9,22.4-23.9,24.9-9.3,1.6-18.4-2.3-26.2-7.1-3.1,3.1-6.4,6.2-10.4,8.3-8.3,4.4-18.2,5.9-27.4,4-9.6-2.1-17.4-9-23.4-16.4-2.6-3.5-5.7-7.6-4.9-12.2,1.1-5,8.6-5.9,11.5-2,2.1,3.1,2.5,6.9,4.5,10,3.5,5.4,9.1,9.7,15.7,10.4,9.3,1.3,18.5-2.9,25.2-9,3.5-3.3,4.3-8.2,4.9-12.7-8.1-3.3-16.9-5.7-23.5-11.7-2.7-2.3-4.1-5.7-5.6-8.8-3.4-2.8-6.7-5.7-10.2-8.4-3.1-1.7-6.2-3.3-9.5-4.6-8.9,20.3-25.6,36.9-45.7,46-24.1,10.9-53,10.2-76.5-1.8ZM352.6,436c.7,3.6-.9,7-3.1,9.7-4.4,5.5-11,9.2-17.9,10.1-3.8.3-8.1.2-11-2.6,5-2.9,11.1-3.5,16-6.7,4.2-2.3,7.5-5.7,11-8.9,1.3-1.4,3.2-1.7,5-1.7Z"/>
    <path fill="#954e25" stroke-width="0" d="M439.8,14c3.2-1.9,7.4-3.9,10.9-1.6,4.7,3.1,7.4,8.4,9.4,13.5-2.7-2.3-5.4-4.8-8.8-5.8-4.5-.9-8.8,1.5-12.4,3.8-8.5,5.8-16.4,12.4-24.1,19.2-5.6,5-12,9.2-18.9,12.3-.5-.4-1.1-.7-1.6-1.1-1-.7-2-1.3-3-1.9,8.5-7.8,17.3-15.2,26.4-22.2,7.2-5.6,14.2-11.6,22.2-16.2ZM32.7,41c-5.5,10.4-7.6,22-10,33.3-.9,4-1.3,8-1.8,12,4-11.7,6.3-24.1,12.6-34.9,2.5-3.9,6.1-7.7,10.9-8.5,5.6-.6,10.8,2,15.7,4.3,10.8,5.2,21.4,10.7,31.3,17.5,5.5,3.8,11.1,7.5,17,10.6l.4.3c.2-2,.5-4,.7-6-7-5.2-14.4-9.8-21.9-14.1-12.5-7.1-25.2-13.9-38.5-19.3-2.9-1.1-6.1-2.3-9.3-1.8-3.3.8-5.5,3.8-7.1,6.6ZM400.7,343.8c-4.1,2.8-10,2.7-14.1-.1-2.4-1.7-3.9-4.3-5.5-6.7-1.5,1-3.2,2.1-3.9,3.9-1.3,2.5-.6,5.6,1.2,7.6,2.6,3.1,5.8,6.2,9.8,7.4,7.2,1.9,15.3-.1,20.8-5.2,2.9-2.7,6-5.8,6.7-9.9.7-4.7-2.2-9.2-6.1-11.5-1.2,5.6-3.8,11.3-8.8,14.5ZM229.4,351.1c-2.4,4.2-6.2,8.5-11.3,8.8-3.7.3-7.8,0-10.6-2.6-4.9-4.4-8.8-10.5-9-17.3-3.1,3.3-7.3,6.6-7.2,11.5-.4,4.6,1.8,9,5,12.2,3.7,3.8,7.8,7.6,13.1,8.9,3.7.7,7.5.7,11.2,0,7-1.5,12.9-6.2,16.9-12,2.7-4,2.9-9.2,2.3-13.8-.6-4-4-7-7.7-8.5-.2,4.4-.4,8.9-2.7,12.8ZM325.3,372.1c8.9-3.5,19.5-4,28,.9-1.4,1.7-2.8,3.5-5,4.3-5.4,1.9-11.2,2-16.8,2-3.1-.2-6.6-.2-9-2.5-.5-2.1,1.5-3.4,2.9-4.6Z"/>
    <path fill="#593321" stroke-width="0" d="M438.8,23.9c3.6-2.4,7.9-4.7,12.4-3.8,3.4,1,6.2,3.5,8.8,5.8,1.7,2.3,2.2,5.1,3.1,7.8,3.3,11.4,5.5,23,7.2,34.7,2.9,21.5,4.6,43.2,3.7,64.8-1-5.4-3.1-10.6-4.7-15.8-2.6-7.5-5-15.2-8.6-22.3-.2-.7-.4-1.5-.5-2.2-.7-5.8-2-11.5-2.9-17.3.7-4.2,0-8.4-.1-12.6-.2-6-1.3-12-1.8-18-.4-3.6-.8-7.7-3.7-10.2-1.3-1.3-3.3-.6-4.7.2-3.9,2.1-6.4,6-9.3,9.3-3.9,4.3-7.8,8.8-11.1,13.7-1.8,2.7-3.8,5.3-5.8,7.9-3,0-6,0-8.8-.9-3.4-1.1-6.4-3-9.3-4.9-2.3-1.5-4.6-3.1-6.9-4.6,6.9-3.1,13.2-7.3,18.9-12.3,7.7-6.8,15.6-13.4,24.1-19.2ZM20.9,86.3c-1.8,10-2.1,20.1-3,30.2-.9,13.6-.4,27.4.9,41,.6-2.4,1.4-4.8,2.1-7.2,3-11.3,7.7-22.1,11.7-33.1,1-2.6,2.3-5.1,3.4-7.6.3-1.9.5-3.9.6-5.8-.8-5.3,0-10.7.1-16,.5-8.7,1.2-17.4,1.5-26.1,0-3,1.8-6.2,4.8-6.9,4.3-.4,8.2,1.9,11.5,4.3,4,3,8.2,6,11.9,9.4,4.3,4.2,8.1,8.9,12,13.4,2.8,3.2,6.2,5.8,8.9,9.1,5.2,0,9.8,2.5,14.7,4,2.8-6.2,5.2-12.8,6.4-19.5-5.9-3.1-11.5-6.8-17-10.6-9.9-6.8-20.5-12.3-31.3-17.5-4.9-2.3-10.2-4.9-15.7-4.3-4.8.8-8.4,4.6-10.9,8.5-6.3,10.8-8.5,23.2-12.6,34.9ZM312.3,383.1c.1,3.8,3.3,6.5,6.5,7.9,4.9,2.3,9.7,4.7,14.8,6.5,2.9,1.1,6.3,1.2,9-.5,4.5-2.7,8.2-6.5,11.1-10.9,1.7-2.7,3.1-5.8,2.5-9.1-.3-1.8-1.8-2.9-2.9-4-1.4,1.7-2.8,3.5-5,4.3-5.4,1.9-11.2,2-16.8,2-3.1-.2-6.6-.2-9-2.5-.5-2.1,1.5-3.4,2.9-4.6-3.3.5-6.3,2.1-8.7,4.3-1.9,1.8-4.4,3.8-4.2,6.7Z"/>
  </g>
  <path fill="#fff" stroke-width="0" d="M676.8,396.2c-8.3,0-14.3-1.3-18-3.9-3.8-2.6-6.1-6-7.1-10.1-.9-4.1-1.4-8.5-1.4-13.3v-194.3c0-4.5.5-8.6,1.4-12.4.9-3.8,3.4-6.9,7.3-9.4,3.9-2.5,10.2-3.7,18.9-3.7s14.4,1,17.7,3c3.3,2,6.2,4.8,8.8,8.3l103.3,141.9v-127.8c0-4.5.5-8.6,1.6-12.4,1.1-3.8,3.5-6.9,7.3-9.4,3.8-2.5,9.9-3.7,18.4-3.7s14.9,1.3,18.6,3.9c3.7,2.6,5.9,6,6.7,10.1.8,4.1,1.2,8.4,1.2,12.9v193.2c0,4.5-.5,8.8-1.4,12.9-.9,4.1-3.3,7.5-7.1,10.1-3.8,2.6-10,3.9-18.8,3.9s-11.7-.6-15.4-1.8c-3.7-1.2-6.8-3.4-9.4-6.7l-105.5-143v124.6c0,4.5-.5,8.8-1.4,12.9-.9,4.1-3.3,7.5-7.1,10.1-3.8,2.6-10,3.9-18.8,3.9ZM920.7,193.7c-9,0-15.3-1.3-19.1-3.9-3.8-2.6-6.1-6-6.9-10.3-.8-4.2-1.2-8.7-1.2-13.4s.5-9.5,1.4-13.6c.9-4.1,3.3-7.4,7.1-9.9,3.8-2.5,10.1-3.7,19.1-3.7s15,1.3,18.8,3.9c3.8,2.6,6.1,6,6.9,10.3.8,4.2,1.2,8.7,1.2,13.4s-.4,9.2-1.2,13.4c-.8,4.2-3.1,7.6-6.9,10.1-3.8,2.5-10.1,3.7-19.1,3.7ZM920.7,396.2c-8.7,0-14.9-1.2-18.6-3.7-3.7-2.5-5.9-5.8-6.7-9.9-.8-4.1-1.2-8.4-1.2-12.9v-123.5c0-4.7.4-9.1,1.2-13.1.8-4,3.1-7.3,6.9-9.7,3.8-2.5,10-3.7,18.8-3.7s14.6,1.3,18.2,3.9c3.7,2.6,5.9,5.9,6.7,9.9.8,4,1.2,8.5,1.2,13.4v123.2c0,4.5-.4,8.8-1.2,12.9-.8,4.1-3.1,7.4-6.7,9.7-3.7,2.4-9.9,3.5-18.6,3.5ZM1003.8,396.2c-8.5,0-14.6-1.3-18.4-3.9-3.8-2.6-6-5.9-6.7-9.9-.7-4-1.1-8.4-1.1-13.1v-123.9c0-4.7.4-9,1.2-12.9.8-3.9,3.1-7.1,6.9-9.6,3.8-2.5,10-3.7,18.8-3.7s15.1,1.7,19.1,5.1c4,3.4,6,9,6,16.8l-4.6,3.9c.5-1.2,1.9-3.2,4.2-6,2.4-2.8,5.4-5.8,9.2-8.8,3.8-3.1,8.2-5.7,13.3-8,5.1-2.2,10.6-3.4,16.5-3.4s14.8,1.1,21.1,3.4c6.2,2.2,11.9,5.5,17,9.9,5.1,4.4,9.5,9.9,13.3,16.5,3.3-4.7,7.3-9.3,12-13.8,4.7-4.5,10.3-8.3,16.8-11.3,6.5-3.1,13.7-4.6,21.8-4.6,13.7,0,25.3,3.5,34.9,10.4,9.6,7,16.8,16.9,21.8,29.9,5,13,7.4,28.7,7.4,47.1v63.4c0,4.5-.4,8.8-1.2,12.9-.8,4.1-3.1,7.4-6.9,9.9-3.8,2.5-10,3.7-18.8,3.7s-14.9-1.3-18.6-3.9c-3.7-2.6-5.9-6-6.7-10.1-.8-4.1-1.2-8.4-1.2-12.9v-63.4c0-7.3-.8-13.4-2.5-18.4-1.7-5-4.2-8.8-7.6-11.5-3.4-2.7-7.7-4.1-12.9-4.1s-10,1.2-13.8,3.7c-3.8,2.5-6.6,6.3-8.5,11.3-1.9,5.1-2.8,11.5-2.8,19.3v63.4c0,4.7-.6,9.1-1.8,13.3-1.2,4.1-3.7,7.4-7.6,9.9-3.9,2.5-10.1,3.6-18.6,3.4-8.5-.2-14.5-1.7-18.1-4.2-3.5-2.6-5.7-6-6.4-10.1-.7-4.1-1.1-8.3-1.1-12.6v-63.4c0-7.3-.8-13.5-2.5-18.6-1.7-5.1-4.1-8.9-7.4-11.5-3.3-2.6-7.7-3.9-13.1-3.9s-10.7,1.5-14.5,4.6c-3.8,3.1-6.5,7.1-8.3,12.2-1.8,5.1-2.7,10.8-2.7,17.2v63.7c0,4.7-.4,9.1-1.2,13.1-.8,4-3.1,7.3-6.9,9.7-3.8,2.5-10,3.7-18.8,3.7ZM1347.1,399c-11.1,0-22.1-2.2-33.1-6.5-11-4.4-20.9-10.6-29.9-18.6-9-8-16-17.6-21.2-28.8-5.2-11.2-7.8-23.6-7.8-37.3s2.4-24.6,7.1-35.6c4.7-11,11.3-20.7,19.8-29.2,8.5-8.5,18.2-15.2,29.2-20,11-4.8,22.7-7.3,35.2-7.3s32.4,4.1,46.2,12.2c13.8,8.1,24.8,19.2,33.1,33.1,8.3,13.9,12.4,29.4,12.4,46.4s-2.7,27.2-8,38.4c-5.3,11.2-12.4,20.8-21.2,28.8-8.8,8-18.6,14.1-29.4,18.2-10.7,4.1-21.5,6.2-32.4,6.2ZM1346.4,345.5c5.7,0,11.4-1.4,17.3-4.2,5.9-2.8,10.8-7.1,14.9-12.7,4-5.7,6-12.9,6-21.6s-1.7-14.2-5-19.8c-3.3-5.7-7.8-10.1-13.6-13.3-5.8-3.2-12.4-4.8-20-4.8s-13.4,1.7-18.9,5c-5.5,3.3-10,7.8-13.4,13.6-3.4,5.8-5.1,12.3-5.1,19.6s1.9,15.6,5.8,21.4c3.9,5.8,8.8,10,14.7,12.7,5.9,2.7,11.7,4.1,17.3,4.1ZM1486.6,396.2c-8.7,0-14.9-1.2-18.6-3.7-3.7-2.5-5.9-5.8-6.7-10.1-.8-4.2-1.2-8.6-1.2-13.1v-123.5c0-4.7.5-9.1,1.4-13.1.9-4,3.2-7.3,6.9-9.7,3.7-2.5,9.8-3.7,18.6-3.7s14.2,1.1,17.9,3.4c3.7,2.2,6,4.8,6.9,7.8.9,3,1.4,5.5,1.4,7.6l-4.2,2.1c.5-.9,1.7-2.7,3.7-5.1,2-2.5,4.8-5.1,8.3-7.8,3.5-2.7,7.8-5,12.9-6.9,5.1-1.9,10.9-2.8,17.5-2.8s5.5.2,8.7.5c3.2.4,6.5,1.1,9.9,2.1,3.4,1.1,6.5,2.5,9.4,4.2,2.8,1.8,5.1,4,6.9,6.5,1.8,2.6,2.7,5.8,2.7,9.6,0,9.7-2.2,17.9-6.7,24.6-4.5,6.7-10.1,10.1-17,10.1s-6.8-.4-8.5-1.1c-1.7-.7-3-1.4-4.1-2.1-1.1-.7-2.3-1.4-3.7-1.9-1.4-.6-4-.9-7.8-.9s-6.9.5-10.1,1.4c-3.2.9-6.1,2.4-8.8,4.4-2.7,2-4.8,4.5-6.4,7.4-1.5,3-2.3,6.2-2.3,9.7v77.9c0,4.5-.4,8.8-1.2,12.9-.8,4.1-3.1,7.4-6.9,9.7-3.8,2.4-10,3.5-18.8,3.5ZM1741.7,395.8c-8.7,0-15.2-1.5-19.3-4.6-4.1-3.1-6.2-6.8-6.2-11.3l3.5-6c-1.4,2.4-4.1,5.3-8.1,8.7-4,3.4-9.2,6.5-15.6,9.2-6.4,2.7-14.3,4.1-23.7,4.1s-21.2-2.4-31-7.1c-9.8-4.7-18.5-11.3-26-19.6-7.6-8.4-13.5-17.9-17.9-28.5-4.4-10.6-6.5-21.8-6.5-33.6s2.2-22.6,6.5-33.1c4.4-10.5,10.4-19.8,18-28,7.7-8.1,16.3-14.6,26-19.3,9.7-4.7,19.9-7.1,30.8-7.1s16.2,1.2,22.3,3.7c6.1,2.5,11.3,5.4,15.4,8.7,4.1,3.3,7.3,6.5,9.4,9.6l-2.8-5c-.2-5.7,1.7-10,5.8-12.9,4.1-2.9,10.7-4.4,19.6-4.4s14.6,1.3,18.2,3.9c3.7,2.6,5.9,6,6.7,10.3.8,4.2,1.2,8.7,1.2,13.4v122.1c0,4.5-.4,8.8-1.2,13.1-.8,4.2-3.1,7.6-6.7,10.1-3.7,2.5-9.9,3.7-18.6,3.7ZM1680.2,343.1c6.1,0,11.7-1.6,16.8-4.8,5.1-3.2,9.1-7.5,12-12.9,2.9-5.4,4.4-11.4,4.4-18.1s-1.5-12.9-4.6-18.2c-3.1-5.3-7.2-9.6-12.4-12.7-5.2-3.2-10.9-4.8-17-4.8s-12.9,1.7-18.2,5c-5.3,3.3-9.6,7.7-12.7,13.1-3.2,5.4-4.8,11.6-4.8,18.4s1.6,12.2,4.8,17.5c3.2,5.3,7.5,9.6,13.1,12.7,5.5,3.2,11.7,4.8,18.6,4.8ZM1905.7,100.2l11.3-4c3.9-1.4,3.9-7,0-8.3l-11.3-4c-2.9-1-5.2-3.3-6.2-6.2l-4-11.3c-1.4-3.9-7-3.9-8.3,0l-4,11.3c-1,2.9-3.3,5.2-6.2,6.2l-11.3,4c-3.9,1.4-3.9,7,0,8.3l11.3,4c2.9,1,5.2,3.3,6.2,6.2l4,11.3c1.4,3.9,7,3.9,8.3,0l4-11.3c1-2.9,3.3-5.2,6.2-6.2ZM1777.5,110.3l5.3-1.9c3.2-1.1,3.2-5.6,0-6.7l-5.3-1.9c-2.1-.7-3.7-2.4-4.5-4.5l-1.9-5.3c-1.1-3.2-5.6-3.2-6.7,0l-1.9,5.3c-.7,2.1-2.4,3.7-4.5,4.5l-5.3,1.9c-3.2,1.1-3.2,5.6,0,6.7l5.3,1.9c2.1.7,3.7,2.4,4.5,4.5l1.9,5.3c1.1,3.2,5.6,3.2,6.7,0l1.9-5.3c.7-2.1,2.4-3.7,4.5-4.5ZM1905.7,245.7l11.3-4c3.9-1.4,3.9-7,0-8.3l-11.3-4c-2.9-1-5.2-3.3-6.2-6.2l-4-11.3c-1.4-3.9-7-3.9-8.3,0l-4,11.3c-1,2.9-3.3,5.2-6.2,6.2l-11.3,4c-3.9,1.4-3.9,7,0,8.3l11.3,4c2.9,1,5.2,3.3,6.2,6.2l4,11.3c1.4,3.9,7,3.9,8.3,0l4-11.3c1-2.9,3.3-5.2,6.2-6.2ZM1907.4,159.4c-35.3-11.3-63.2-39.1-74.5-74.5-1.7-5.3-9.1-5.3-10.8,0-11.3,35.3-39.1,63.2-74.5,74.5-5.3,1.7-5.3,9.1,0,10.8,35.3,11.3,63.2,39.1,74.5,74.5,1.7,5.3,9.1,5.3,10.8,0,11.3-35.3,39.1-63.2,74.5-74.5,5.3-1.7,5.3-9.1,0-10.8Z"/>
</svg>