<?xml version="1.0" encoding="UTF-8"?>
<svg id="Layer_1" data-name="Layer 1" xmlns="http://www.w3.org/2000/svg" version="1.1" viewBox="0 0 696.2 255.5">
  <rect fill="#fc6929" stroke-width="0" x="-.9" y="0" width="697.9" height="255.5" rx="127.8" ry="127.8"/>
  <path fill="#3c1e14" stroke-width="0" d="M569.3,226.8H126.9C30.1,226.8,0,158.1,0,113.4c-.5,4.7-.8,9.5-.8,14.4h0c0,70.6,57.2,127.8,127.8,127.8h442.4c70.6,0,127.8-57.2,127.8-127.8h0c0-4.9-.3-9.6-.8-14.4,0,64.3-45,113.4-126.9,113.4Z"/>
  <path fill="#3c1e14" stroke-width="0" d="M556.6,14.8H139.6c-66.5,0-120.5,44-120.5,98.2h0c0,1.1,0,2.3.1,3.4,2.2-52.7,55.2-94.8,120.3-94.8h417.1c65.1,0,118.1,42.2,120.3,94.8,0-1.1.1-2.3.1-3.4h0c0-54.2-53.9-98.2-120.5-98.2Z"/>
</svg>
